<svg width="383" height="241" viewBox="0 0 383 241" fill="none" xmlns="http://www.w3.org/2000/svg">
<path d="M59.0141 123.467C60.4393 123.449 61.5793 124.668 61.3253 126.07C60.6213 129.957 59.1047 133.475 56.7755 136.625C53.9629 140.472 50.245 143.43 45.622 145.499C41.0313 147.568 36.0526 148.554 30.686 148.457C23.3149 148.296 17.5119 145.92 13.2768 141.329C9.04166 136.738 6.73013 130.515 6.34218 122.659C6.05122 117.421 6.61698 111.715 8.03945 105.541C9.49426 99.3657 11.8381 93.9991 15.071 89.4407C18.3363 84.85 22.1673 81.4231 26.564 79.16C30.9931 76.8647 35.8263 75.7655 41.0636 75.8625C48.7579 75.9918 54.8358 78.3033 59.2972 82.7971C63.2978 86.7977 65.6713 92.1435 66.4178 98.8344C66.5711 100.208 65.4592 101.367 64.0767 101.363L52.5267 101.329C51.1821 101.325 50.1168 100.22 50.0206 98.879C49.8024 95.8375 49.0474 93.5804 47.7557 92.1078C46.1392 90.2651 43.5852 89.279 40.0937 89.1497C31.3649 88.8588 26.0467 95.6479 24.1393 109.517C23.2664 115.789 22.83 120.266 22.83 122.95C22.6684 130.903 25.6103 134.992 31.6558 135.219C35.5676 135.348 38.6874 134.394 41.0151 132.357C42.92 130.664 44.2619 128.408 45.0409 125.589C45.351 124.467 46.3212 123.619 47.4851 123.605L59.0141 123.467Z" fill="white"/>
<path d="M101.105 121.382C100.905 122.54 99.9008 123.386 98.7259 123.386H75.2561C73.759 123.386 72.623 122.037 72.8773 120.562L74.2272 112.733C74.4268 111.575 75.4311 110.729 76.606 110.729H100.076C101.573 110.729 102.709 112.078 102.454 113.553L101.105 121.382Z" fill="white"/>
<path d="M151.803 136.403C151.648 135.199 150.623 134.297 149.409 134.297H130.509C129.577 134.297 128.728 134.834 128.328 135.677L123.381 146.108C122.981 146.95 122.132 147.487 121.2 147.487H108.454C106.635 147.487 105.47 145.552 106.321 143.944L141.153 78.1651C141.572 77.375 142.392 76.8808 143.286 76.8808H155.439C156.603 76.8808 157.602 77.7115 157.813 78.8562L169.966 144.635C170.24 146.119 169.101 147.487 167.592 147.487H155.352C154.138 147.487 153.113 146.586 152.958 145.382L151.803 136.403ZM136.824 117.707C136.065 119.309 137.233 121.155 139.006 121.155H147.093C148.548 121.155 149.672 119.879 149.488 118.436L147.774 104.992C147.469 102.6 144.231 102.084 143.198 104.263L136.824 117.707Z" fill="white"/>
<path d="M199.009 123.54C197.832 123.535 196.823 124.38 196.621 125.54L193.148 145.488C192.947 146.644 191.943 147.487 190.77 147.487H179.083C177.585 147.487 176.449 146.138 176.704 144.662L188.088 78.887C188.289 77.7281 189.295 76.8825 190.472 76.8847L213.798 76.9293C221.654 76.9293 227.829 79.1115 232.322 83.476C236.848 87.8404 238.837 93.498 238.287 100.449C237.899 105.201 236.38 109.323 233.729 112.815C231.078 116.306 227.57 118.973 223.205 120.816C218.873 122.659 214.008 123.58 208.609 123.58L199.009 123.54ZM199.736 107.59C199.481 109.057 200.602 110.403 202.091 110.417L209.239 110.487C213.442 110.39 216.659 109.032 218.89 106.413C221.12 103.762 222.009 100.513 221.557 96.6662C221.298 94.6942 220.538 93.1424 219.278 92.0108C218.049 90.847 216.416 90.2004 214.38 90.0711L204.829 90.0311C203.651 90.0262 202.642 90.8716 202.44 92.0317L199.736 107.59Z" fill="white"/>
<path d="M262.245 123.54C261.067 123.535 260.058 124.38 259.856 125.54L256.384 145.488C256.183 146.644 255.179 147.487 254.006 147.487H242.318C240.821 147.487 239.684 146.138 239.94 144.662L251.324 78.887C251.525 77.7281 252.531 76.8825 253.707 76.8847L277.033 76.9293C284.889 76.9293 291.064 79.1115 295.558 83.476C300.084 87.8404 302.072 93.498 301.523 100.449C301.135 105.201 299.615 109.323 296.964 112.815C294.313 116.306 290.806 118.973 286.441 120.816C282.109 122.659 277.243 123.58 271.845 123.58L262.245 123.54ZM262.972 107.59C262.717 109.057 263.838 110.403 265.327 110.417L272.475 110.487C276.678 110.39 279.894 109.032 282.125 106.413C284.356 103.762 285.245 100.513 284.792 96.6662C284.534 94.6942 283.774 93.1424 282.513 92.0108C281.285 90.847 279.652 90.2004 277.615 90.0711L268.064 90.0311C266.887 90.0262 265.878 90.8716 265.676 92.0317L262.972 107.59Z" fill="white"/>
<path d="M44.29 177.556V211.575C44.29 223.899 58.215 231.073 68.2505 223.919V223.919C79.3827 215.983 92.7134 211.718 106.385 211.718H126.441H208.593H272.037C327.739 211.718 372.896 166.562 372.896 110.859V110.859C372.896 55.1562 327.739 10 272.037 10H112.884C88.9429 10 67.2111 23.9934 57.3041 45.7887V45.7887" stroke="white" stroke-width="19.5211" stroke-linecap="round" stroke-linejoin="round"/>
</svg>
